<?xml version="1.0" encoding="UTF-8"?>
<!DOCTYPE svg
PUBLIC "-//W3C//DTD SVG 1.1//EN"
       "http://www.w3.org/Graphics/SVG/1.1/DTD/svg11.dtd">
<svg viewBox="92 55 1081 622" width="989px" height="567px" xmlns="http://www.w3.org/2000/svg" version="1.1">
   <line x1="701" y1="597" x2="711" y2="597" style="stroke:#333;stroke-width:1;"/>
   <line x1="876" y1="276" x2="886" y2="276" style="stroke:#333;stroke-width:1;"/>
   <line x1="711" y1="597" x2="876" y2="276" style="stroke:#333;stroke-width:1;"/>
   <line x1="708,5" y1="597" x2="704,96446609407" y2="600,53553390593" style="stroke:#333;stroke-width:2;"/>
   <line x1="708,5" y1="597" x2="704,96446609407" y2="593,46446609407" style="stroke:#333;stroke-width:2;"/>
   <line x1="881" y1="276" x2="877,46446609407" y2="279,53553390593" style="stroke:#333;stroke-width:2;"/>
   <line x1="881" y1="276" x2="877,46446609407" y2="272,46446609407" style="stroke:#333;stroke-width:2;"/>
   <line x1="593" y1="577" x2="583" y2="577" style="stroke:#b0b;stroke-width:1;"/>
   <line x1="511" y1="232" x2="501" y2="232" style="stroke:#b0b;stroke-width:1;"/>
   <line x1="583" y1="577" x2="511" y2="232" style="stroke:#b0b;stroke-width:1;"/>
   <line x1="585,5" y1="577" x2="589,03553390593" y2="580,53553390593" style="stroke:#b0b;stroke-width:2;"/>
   <line x1="585,5" y1="577" x2="589,03553390593" y2="573,46446609407" style="stroke:#b0b;stroke-width:2;"/>
   <line x1="506" y1="232" x2="509,53553390593" y2="235,53553390593" style="stroke:#b0b;stroke-width:2;"/>
   <line x1="506" y1="232" x2="509,53553390593" y2="228,46446609407" style="stroke:#b0b;stroke-width:2;"/>
   <line x1="114" y1="542" x2="104" y2="542" style="stroke:#c00;stroke-width:1;"/>
   <line x1="100" y1="336" x2="110" y2="336" style="stroke:#c00;stroke-width:1;"/>
   <line x1="104" y1="542" x2="100" y2="336" style="stroke:#c00;stroke-width:1;"/>
   <line x1="106,5" y1="542" x2="110,03553390593" y2="545,53553390593" style="stroke:#c00;stroke-width:2;"/>
   <line x1="106,5" y1="542" x2="110,03553390593" y2="538,46446609407" style="stroke:#c00;stroke-width:2;"/>
   <line x1="105" y1="336" x2="101,46446609407" y2="339,53553390593" style="stroke:#c00;stroke-width:2;"/>
   <line x1="105" y1="336" x2="101,46446609407" y2="332,46446609407" style="stroke:#c00;stroke-width:2;"/>
   <line x1="200" y1="522" x2="210" y2="522" style="stroke:#333;stroke-width:1;"/>
   <line x1="359" y1="232" x2="369" y2="232" style="stroke:#333;stroke-width:1;"/>
   <line x1="210" y1="522" x2="359" y2="232" style="stroke:#333;stroke-width:1;"/>
   <line x1="207,5" y1="522" x2="203,96446609407" y2="525,53553390593" style="stroke:#333;stroke-width:2;"/>
   <line x1="207,5" y1="522" x2="203,96446609407" y2="518,46446609407" style="stroke:#333;stroke-width:2;"/>
   <line x1="364" y1="232" x2="360,46446609407" y2="235,53553390593" style="stroke:#333;stroke-width:2;"/>
   <line x1="364" y1="232" x2="360,46446609407" y2="228,46446609407" style="stroke:#333;stroke-width:2;"/>
   <line x1="1066" y1="416" x2="1076" y2="416" style="stroke:#b0b;stroke-width:1;"/>
   <line x1="1045" y1="465" x2="1035" y2="465" style="stroke:#b0b;stroke-width:1;"/>
   <line x1="1076" y1="416" x2="1045" y2="465" style="stroke:#b0b;stroke-width:1;"/>
   <line x1="1073,5" y1="416" x2="1069,9644660941" y2="419,53553390593" style="stroke:#b0b;stroke-width:2;"/>
   <line x1="1073,5" y1="416" x2="1069,9644660941" y2="412,46446609407" style="stroke:#b0b;stroke-width:2;"/>
   <line x1="1040" y1="465" x2="1043,5355339059" y2="468,53553390593" style="stroke:#b0b;stroke-width:2;"/>
   <line x1="1040" y1="465" x2="1043,5355339059" y2="461,46446609407" style="stroke:#b0b;stroke-width:2;"/>
   <line x1="886" y1="396" x2="876" y2="396" style="stroke:#cb0;stroke-width:1;"/>
   <line x1="511" y1="232" x2="501" y2="232" style="stroke:#cb0;stroke-width:1;"/>
   <line x1="876" y1="396" x2="511" y2="232" style="stroke:#cb0;stroke-width:1;"/>
   <line x1="878,5" y1="396" x2="882,03553390593" y2="399,53553390593" style="stroke:#cb0;stroke-width:2;"/>
   <line x1="878,5" y1="396" x2="882,03553390593" y2="392,46446609407" style="stroke:#cb0;stroke-width:2;"/>
   <line x1="506" y1="232" x2="509,53553390593" y2="235,53553390593" style="stroke:#cb0;stroke-width:2;"/>
   <line x1="506" y1="232" x2="509,53553390593" y2="228,46446609407" style="stroke:#cb0;stroke-width:2;"/>
   <line x1="756" y1="263" x2="766" y2="263" style="stroke:#cb0;stroke-width:1;"/>
   <line x1="876" y1="276" x2="886" y2="276" style="stroke:#cb0;stroke-width:1;"/>
   <line x1="766" y1="263" x2="876" y2="276" style="stroke:#cb0;stroke-width:1;"/>
   <line x1="763,5" y1="263" x2="759,96446609407" y2="266,53553390593" style="stroke:#cb0;stroke-width:2;"/>
   <line x1="763,5" y1="263" x2="759,96446609407" y2="259,46446609407" style="stroke:#cb0;stroke-width:2;"/>
   <line x1="881" y1="276" x2="877,46446609407" y2="279,53553390593" style="stroke:#cb0;stroke-width:2;"/>
   <line x1="881" y1="276" x2="877,46446609407" y2="272,46446609407" style="stroke:#cb0;stroke-width:2;"/>
   <line x1="648" y1="243" x2="638" y2="243" style="stroke:#bbb;stroke-width:1;"/>
   <line x1="511" y1="232" x2="501" y2="232" style="stroke:#bbb;stroke-width:1;"/>
   <line x1="638" y1="243" x2="511" y2="232" style="stroke:#bbb;stroke-width:1;"/>
   <line x1="640,5" y1="243" x2="644,03553390593" y2="246,53553390593" style="stroke:#bbb;stroke-width:2;"/>
   <line x1="640,5" y1="243" x2="644,03553390593" y2="239,46446609407" style="stroke:#bbb;stroke-width:2;"/>
   <line x1="506" y1="232" x2="509,53553390593" y2="235,53553390593" style="stroke:#bbb;stroke-width:2;"/>
   <line x1="506" y1="232" x2="509,53553390593" y2="228,46446609407" style="stroke:#bbb;stroke-width:2;"/>
   <line x1="107" y1="251" x2="97" y2="251" style="stroke:#333;stroke-width:1;"/>
   <line x1="100" y1="336" x2="110" y2="336" style="stroke:#333;stroke-width:1;"/>
   <line x1="97" y1="251" x2="100" y2="336" style="stroke:#333;stroke-width:1;"/>
   <line x1="99,5" y1="251" x2="103,03553390593" y2="254,53553390593" style="stroke:#333;stroke-width:2;"/>
   <line x1="99,5" y1="251" x2="103,03553390593" y2="247,46446609407" style="stroke:#333;stroke-width:2;"/>
   <line x1="105" y1="336" x2="101,46446609407" y2="339,53553390593" style="stroke:#333;stroke-width:2;"/>
   <line x1="105" y1="336" x2="101,46446609407" y2="332,46446609407" style="stroke:#333;stroke-width:2;"/>
   <line x1="201" y1="231" x2="211" y2="231" style="stroke:#b0b;stroke-width:1;"/>
   <line x1="359" y1="232" x2="369" y2="232" style="stroke:#b0b;stroke-width:1;"/>
   <line x1="211" y1="231" x2="359" y2="232" style="stroke:#b0b;stroke-width:1;"/>
   <line x1="208,5" y1="231" x2="204,96446609407" y2="234,53553390593" style="stroke:#b0b;stroke-width:2;"/>
   <line x1="208,5" y1="231" x2="204,96446609407" y2="227,46446609407" style="stroke:#b0b;stroke-width:2;"/>
   <line x1="364" y1="232" x2="360,46446609407" y2="235,53553390593" style="stroke:#b0b;stroke-width:2;"/>
   <line x1="364" y1="232" x2="360,46446609407" y2="228,46446609407" style="stroke:#b0b;stroke-width:2;"/>
   <line x1="591" y1="425" x2="581" y2="425" style="stroke:#bbb;stroke-width:1;"/>
   <line x1="511" y1="232" x2="501" y2="232" style="stroke:#bbb;stroke-width:1;"/>
   <line x1="581" y1="425" x2="511" y2="232" style="stroke:#bbb;stroke-width:1;"/>
   <line x1="583,5" y1="425" x2="587,03553390593" y2="428,53553390593" style="stroke:#bbb;stroke-width:2;"/>
   <line x1="583,5" y1="425" x2="587,03553390593" y2="421,46446609407" style="stroke:#bbb;stroke-width:2;"/>
   <line x1="506" y1="232" x2="509,53553390593" y2="235,53553390593" style="stroke:#bbb;stroke-width:2;"/>
   <line x1="506" y1="232" x2="509,53553390593" y2="228,46446609407" style="stroke:#bbb;stroke-width:2;"/>
   <line x1="591" y1="445" x2="581" y2="445" style="stroke:#cb0;stroke-width:1;"/>
   <line x1="583" y1="517" x2="593" y2="517" style="stroke:#cb0;stroke-width:1;"/>
   <line x1="581" y1="445" x2="583" y2="517" style="stroke:#cb0;stroke-width:1;"/>
   <line x1="583,5" y1="445" x2="587,03553390593" y2="448,53553390593" style="stroke:#cb0;stroke-width:2;"/>
   <line x1="583,5" y1="445" x2="587,03553390593" y2="441,46446609407" style="stroke:#cb0;stroke-width:2;"/>
   <line x1="588" y1="517" x2="584,46446609407" y2="520,53553390593" style="stroke:#cb0;stroke-width:2;"/>
   <line x1="588" y1="517" x2="584,46446609407" y2="513,46446609407" style="stroke:#cb0;stroke-width:2;"/>
   <line x1="738" y1="160" x2="748" y2="160" style="stroke:#bbb;stroke-width:1;"/>
   <line x1="876" y1="276" x2="886" y2="276" style="stroke:#bbb;stroke-width:1;"/>
   <line x1="748" y1="160" x2="876" y2="276" style="stroke:#bbb;stroke-width:1;"/>
   <line x1="745,5" y1="160" x2="741,96446609407" y2="163,53553390593" style="stroke:#bbb;stroke-width:2;"/>
   <line x1="745,5" y1="160" x2="741,96446609407" y2="156,46446609407" style="stroke:#bbb;stroke-width:2;"/>
   <line x1="881" y1="276" x2="877,46446609407" y2="279,53553390593" style="stroke:#bbb;stroke-width:2;"/>
   <line x1="881" y1="276" x2="877,46446609407" y2="272,46446609407" style="stroke:#bbb;stroke-width:2;"/>
   <line x1="616" y1="140" x2="606" y2="140" style="stroke:#bbb;stroke-width:1;"/>
   <line x1="511" y1="232" x2="501" y2="232" style="stroke:#bbb;stroke-width:1;"/>
   <line x1="606" y1="140" x2="511" y2="232" style="stroke:#bbb;stroke-width:1;"/>
   <line x1="608,5" y1="140" x2="612,03553390593" y2="143,53553390593" style="stroke:#bbb;stroke-width:2;"/>
   <line x1="608,5" y1="140" x2="612,03553390593" y2="136,46446609407" style="stroke:#bbb;stroke-width:2;"/>
   <line x1="506" y1="232" x2="509,53553390593" y2="235,53553390593" style="stroke:#bbb;stroke-width:2;"/>
   <line x1="506" y1="232" x2="509,53553390593" y2="228,46446609407" style="stroke:#bbb;stroke-width:2;"/>
   <rect width="86" height="20" x="110" y="306" style="fill:#007;stroke:black;"/>
   <text width="86" height="20" x="115" y="320" style="fill:#fff;" font-family="Arial" font-size="16px"> chat</text>
   <rect width="86" height="20" x="110" y="326" style="fill:#aea;stroke:black;"/>
   <text width="86" height="20" x="115" y="340" style="fill:black;" font-family="Arial" font-size="16px">id</text>
   <rect width="86" height="20" x="110" y="346" style="fill:none;stroke:black;"/>
   <text width="86" height="20" x="115" y="360" style="fill:black;" font-family="Arial" font-size="16px">nombre</text>
   <rect width="86" height="20" x="110" y="366" style="fill:none;stroke:black;"/>
   <text width="86" height="20" x="115" y="380" style="fill:black;" font-family="Arial" font-size="16px">fecha_hora</text>
   <rect width="108" height="20" x="593" y="487" style="fill:#007;stroke:black;"/>
   <text width="108" height="20" x="598" y="501" style="fill:#fff;" font-family="Arial" font-size="16px"> comentario</text>
   <rect width="108" height="20" x="593" y="507" style="fill:#aea;stroke:black;"/>
   <text width="108" height="20" x="598" y="521" style="fill:black;" font-family="Arial" font-size="16px">id</text>
   <rect width="108" height="20" x="593" y="527" style="fill:none;stroke:black;"/>
   <text width="108" height="20" x="598" y="541" style="fill:black;" font-family="Arial" font-size="16px">fecha_hora</text>
   <rect width="108" height="20" x="593" y="547" style="fill:none;stroke:black;"/>
   <text width="108" height="20" x="598" y="561" style="fill:black;" font-family="Arial" font-size="16px">contenido</text>
   <rect width="108" height="20" x="593" y="567" style="fill:none;stroke:black;"/>
   <text width="108" height="20" x="598" y="581" style="fill:black;" font-family="Arial" font-size="16px">id_usuario</text>
   <rect width="108" height="20" x="593" y="587" style="fill:none;stroke:black;"/>
   <text width="108" height="20" x="598" y="601" style="fill:black;" font-family="Arial" font-size="16px">id_publicacion</text>
   <rect width="86" height="20" x="114" y="432" style="fill:#007;stroke:black;"/>
   <text width="86" height="20" x="119" y="446" style="fill:#fff;" font-family="Arial" font-size="16px"> mensaje</text>
   <rect width="86" height="20" x="114" y="452" style="fill:#aea;stroke:black;"/>
   <text width="86" height="20" x="119" y="466" style="fill:black;" font-family="Arial" font-size="16px">id</text>
   <rect width="86" height="20" x="114" y="472" style="fill:none;stroke:black;"/>
   <text width="86" height="20" x="119" y="486" style="fill:black;" font-family="Arial" font-size="16px">contenido</text>
   <rect width="86" height="20" x="114" y="492" style="fill:none;stroke:black;"/>
   <text width="86" height="20" x="119" y="506" style="fill:black;" font-family="Arial" font-size="16px">fecha_hora</text>
   <rect width="86" height="20" x="114" y="512" style="fill:none;stroke:black;"/>
   <text width="86" height="20" x="119" y="526" style="fill:black;" font-family="Arial" font-size="16px">id_usuario</text>
   <rect width="86" height="20" x="114" y="532" style="fill:none;stroke:black;"/>
   <text width="86" height="20" x="119" y="546" style="fill:black;" font-family="Arial" font-size="16px">id_chat</text>
   <rect width="180" height="20" x="886" y="246" style="fill:#007;stroke:black;"/>
   <text width="180" height="20" x="891" y="260" style="fill:#fff;" font-family="Arial" font-size="16px"> publicacion</text>
   <rect width="180" height="20" x="886" y="266" style="fill:#aea;stroke:black;"/>
   <text width="180" height="20" x="891" y="280" style="fill:black;" font-family="Arial" font-size="16px">id</text>
   <rect width="180" height="20" x="886" y="286" style="fill:none;stroke:black;"/>
   <text width="180" height="20" x="891" y="300" style="fill:black;" font-family="Arial" font-size="16px">titulo</text>
   <rect width="180" height="20" x="886" y="306" style="fill:none;stroke:black;"/>
   <text width="180" height="20" x="891" y="320" style="fill:black;" font-family="Arial" font-size="16px">contenido</text>
   <rect width="180" height="20" x="886" y="326" style="fill:none;stroke:black;"/>
   <text width="180" height="20" x="891" y="340" style="fill:black;" font-family="Arial" font-size="16px">fecha_hora_creacion</text>
   <rect width="180" height="20" x="886" y="346" style="fill:none;stroke:black;"/>
   <text width="180" height="20" x="891" y="360" style="fill:black;" font-family="Arial" font-size="16px">fecha_hora_modificacion</text>
   <rect width="180" height="20" x="886" y="366" style="fill:none;stroke:black;"/>
   <text width="180" height="20" x="891" y="380" style="fill:black;" font-family="Arial" font-size="16px">ruta</text>
   <rect width="180" height="20" x="886" y="386" style="fill:none;stroke:black;"/>
   <text width="180" height="20" x="891" y="400" style="fill:black;" font-family="Arial" font-size="16px">id_usuario</text>
   <rect width="180" height="20" x="886" y="406" style="fill:none;stroke:black;"/>
   <text width="180" height="20" x="891" y="420" style="fill:black;" font-family="Arial" font-size="16px">id_tematica</text>
   <rect width="108" height="20" x="648" y="173" style="fill:#007;stroke:black;"/>
   <text width="108" height="20" x="653" y="187" style="fill:#fff;" font-family="Arial" font-size="16px"> suscripcion</text>
   <rect width="108" height="20" x="648" y="193" style="fill:#aea;stroke:black;"/>
   <text width="108" height="20" x="653" y="207" style="fill:black;" font-family="Arial" font-size="16px">id</text>
   <rect width="108" height="20" x="648" y="213" style="fill:none;stroke:black;"/>
   <text width="108" height="20" x="653" y="227" style="fill:black;" font-family="Arial" font-size="16px">fecha_hora</text>
   <rect width="108" height="20" x="648" y="233" style="fill:none;stroke:black;"/>
   <text width="108" height="20" x="653" y="247" style="fill:black;" font-family="Arial" font-size="16px">id_usuario</text>
   <rect width="108" height="20" x="648" y="253" style="fill:none;stroke:black;"/>
   <text width="108" height="20" x="653" y="267" style="fill:black;" font-family="Arial" font-size="16px">id_publicacion</text>
   <rect width="71" height="20" x="964" y="435" style="fill:#007;stroke:black;"/>
   <text width="71" height="20" x="969" y="449" style="fill:#fff;" font-family="Arial" font-size="16px"> tematica</text>
   <rect width="71" height="20" x="964" y="455" style="fill:#aea;stroke:black;"/>
   <text width="71" height="20" x="969" y="469" style="fill:black;" font-family="Arial" font-size="16px">id</text>
   <rect width="71" height="20" x="964" y="475" style="fill:none;stroke:black;"/>
   <text width="71" height="20" x="969" y="489" style="fill:black;" font-family="Arial" font-size="16px">nombre</text>
   <rect width="71" height="20" x="964" y="495" style="fill:none;stroke:black;"/>
   <text width="71" height="20" x="969" y="509" style="fill:black;" font-family="Arial" font-size="16px">imagen</text>
   <rect width="132" height="20" x="369" y="202" style="fill:#007;stroke:black;"/>
   <text width="132" height="20" x="374" y="216" style="fill:#fff;" font-family="Arial" font-size="16px"> usuario</text>
   <rect width="132" height="20" x="369" y="222" style="fill:#aea;stroke:black;"/>
   <text width="132" height="20" x="374" y="236" style="fill:black;" font-family="Arial" font-size="16px">id</text>
   <rect width="132" height="20" x="369" y="242" style="fill:none;stroke:black;"/>
   <text width="132" height="20" x="374" y="256" style="fill:black;" font-family="Arial" font-size="16px">nombre</text>
   <rect width="132" height="20" x="369" y="262" style="fill:none;stroke:black;"/>
   <text width="132" height="20" x="374" y="276" style="fill:black;" font-family="Arial" font-size="16px">apellidos</text>
   <rect width="132" height="20" x="369" y="282" style="fill:none;stroke:black;"/>
   <text width="132" height="20" x="374" y="296" style="fill:black;" font-family="Arial" font-size="16px">nickname</text>
   <rect width="132" height="20" x="369" y="302" style="fill:none;stroke:black;"/>
   <text width="132" height="20" x="374" y="316" style="fill:black;" font-family="Arial" font-size="16px">password</text>
   <rect width="132" height="20" x="369" y="322" style="fill:none;stroke:black;"/>
   <text width="132" height="20" x="374" y="336" style="fill:black;" font-family="Arial" font-size="16px">email</text>
   <rect width="132" height="20" x="369" y="342" style="fill:none;stroke:black;"/>
   <text width="132" height="20" x="374" y="356" style="fill:black;" font-family="Arial" font-size="16px">tipo</text>
   <rect width="132" height="20" x="369" y="362" style="fill:none;stroke:black;"/>
   <text width="132" height="20" x="374" y="376" style="fill:black;" font-family="Arial" font-size="16px">fecha_nacimiento</text>
   <rect width="94" height="20" x="107" y="201" style="fill:#007;stroke:black;"/>
   <text width="94" height="20" x="112" y="215" style="fill:#fff;" font-family="Arial" font-size="16px"> usuario_chat</text>
   <rect width="94" height="20" x="107" y="221" style="fill:none;stroke:black;"/>
   <text width="94" height="20" x="112" y="235" style="fill:black;" font-family="Arial" font-size="16px">id_usuario</text>
   <rect width="94" height="20" x="107" y="241" style="fill:none;stroke:black;"/>
   <text width="94" height="20" x="112" y="255" style="fill:black;" font-family="Arial" font-size="16px">id_chat</text>
   <rect width="121" height="20" x="591" y="355" style="fill:#007;stroke:black;"/>
   <text width="121" height="20" x="596" y="369" style="fill:#fff;" font-family="Arial" font-size="16px"> voto_comentario</text>
   <rect width="121" height="20" x="591" y="375" style="fill:none;stroke:black;"/>
   <text width="121" height="20" x="596" y="389" style="fill:black;" font-family="Arial" font-size="16px">tipo</text>
   <rect width="121" height="20" x="591" y="395" style="fill:none;stroke:black;"/>
   <text width="121" height="20" x="596" y="409" style="fill:black;" font-family="Arial" font-size="16px">fecha_hora</text>
   <rect width="121" height="20" x="591" y="415" style="fill:none;stroke:black;"/>
   <text width="121" height="20" x="596" y="429" style="fill:black;" font-family="Arial" font-size="16px">id_usuario</text>
   <rect width="121" height="20" x="591" y="435" style="fill:none;stroke:black;"/>
   <text width="121" height="20" x="596" y="449" style="fill:black;" font-family="Arial" font-size="16px">id_comentario</text>
   <rect width="122" height="20" x="616" y="70" style="fill:#007;stroke:black;"/>
   <text width="122" height="20" x="621" y="84" style="fill:#fff;" font-family="Arial" font-size="16px"> voto_publicacion</text>
   <rect width="122" height="20" x="616" y="90" style="fill:none;stroke:black;"/>
   <text width="122" height="20" x="621" y="104" style="fill:black;" font-family="Arial" font-size="16px">tipo</text>
   <rect width="122" height="20" x="616" y="110" style="fill:none;stroke:black;"/>
   <text width="122" height="20" x="621" y="124" style="fill:black;" font-family="Arial" font-size="16px">fecha_hora</text>
   <rect width="122" height="20" x="616" y="130" style="fill:none;stroke:black;"/>
   <text width="122" height="20" x="621" y="144" style="fill:black;" font-family="Arial" font-size="16px">id_usuario</text>
   <rect width="122" height="20" x="616" y="150" style="fill:none;stroke:black;"/>
   <text width="122" height="20" x="621" y="164" style="fill:black;" font-family="Arial" font-size="16px">id_publicacion</text>
</svg>
